<?xml version="1.0" encoding="UTF-8" ?>
<!DOCTYPE svg PUBLIC "-//W3C//DTD SVG 1.1//EN" "http://www.w3.org/Graphics/SVG/1.1/DTD/svg11.dtd">
<svg width="256pt" height="256pt" viewBox="0 0 256 256" version="1.1" xmlns="http://www.w3.org/2000/svg">
<path fill="#67217a" d=" M 0.00 0.00 L 256.00 0.00 L 256.00 256.00 L 0.00 256.00 L 0.00 0.00 Z" />
<path fill="#ffffff" d=" M 17.06 22.33 C 64.21 22.35 111.36 22.26 158.51 22.37 C 158.55 35.94 158.57 49.51 158.49 63.08 C 132.37 63.47 106.23 63.07 80.10 63.28 C 82.26 66.12 84.60 68.83 87.05 71.42 C 91.26 70.04 94.98 67.51 99.22 66.25 C 101.06 65.50 102.60 67.10 104.05 67.98 C 115.48 76.67 126.96 85.29 138.59 93.70 C 158.53 73.23 178.15 52.46 198.09 32.00 C 214.00 38.19 229.79 44.69 245.68 50.96 C 245.08 96.98 245.80 143.03 245.31 189.05 C 229.48 195.67 213.45 201.86 197.42 208.00 C 182.35 191.95 166.51 176.63 151.13 160.86 C 147.11 156.87 143.34 152.62 139.07 148.88 C 126.48 157.93 114.29 167.53 101.77 176.69 C 97.62 174.24 93.52 171.67 89.09 169.75 C 84.11 175.31 79.28 181.03 75.20 187.28 C 103.49 187.49 131.78 187.24 160.07 187.41 C 160.33 200.92 160.43 214.43 160.32 227.95 C 111.80 228.05 63.27 228.03 14.75 227.96 C 14.67 217.29 14.69 206.62 14.73 195.96 C 14.57 194.50 15.33 193.27 16.22 192.22 C 28.37 177.36 40.40 162.41 52.52 147.54 C 59.10 138.87 66.55 130.88 72.85 122.00 C 68.63 116.03 63.47 110.81 58.78 105.22 C 45.32 89.38 31.70 73.67 18.17 57.89 C 16.64 56.35 17.09 54.03 16.97 52.07 C 17.08 42.16 16.90 32.24 17.06 22.33 Z" />
<path fill="#67217a" d=" M 24.90 30.93 C 67.15 30.90 109.40 30.76 151.65 31.00 C 151.68 38.75 151.69 46.51 151.65 54.26 C 121.70 54.50 91.74 54.23 61.79 54.39 C 70.37 64.79 79.23 74.97 88.07 85.14 C 93.20 83.35 97.74 80.27 102.78 78.28 C 114.68 87.58 126.41 97.13 138.64 105.98 C 157.56 87.44 175.94 68.33 195.00 49.92 C 206.84 54.51 218.61 59.27 230.37 64.06 C 230.43 101.98 230.50 139.90 230.34 177.82 C 219.78 182.24 209.08 186.30 198.51 190.70 C 196.92 191.24 194.69 192.47 193.43 190.68 C 175.17 172.40 156.94 154.09 138.63 135.88 C 126.38 144.79 114.64 154.38 102.66 163.65 C 97.99 161.68 93.69 158.93 89.00 157.05 C 87.45 157.70 86.56 159.27 85.44 160.45 C 75.66 172.62 65.70 184.64 55.93 196.81 C 88.46 197.08 121.00 196.63 153.53 197.04 C 153.55 204.68 153.55 212.33 153.53 219.98 C 109.78 220.29 66.01 220.15 22.26 220.05 C 22.21 214.68 22.21 209.30 22.20 203.93 C 22.28 202.33 22.04 200.50 23.30 199.28 C 43.25 174.88 63.09 150.38 83.04 125.97 C 83.99 124.77 84.88 123.53 85.77 122.28 C 67.61 100.77 49.17 79.49 30.93 58.04 C 28.97 55.65 26.59 53.53 25.09 50.80 C 24.50 44.20 24.95 37.55 24.90 30.93 Z" />
<path fill="#ffffff" d=" M 157.63 120.97 C 169.84 111.17 182.27 101.63 194.68 92.07 C 194.73 111.34 194.75 130.61 194.67 149.88 C 182.33 140.23 169.87 130.73 157.63 120.97 Z" />
<path fill="#ffffff" d=" M 102.11 100.26 C 105.75 102.38 108.43 105.69 111.41 108.59 C 115.46 112.73 119.70 116.68 123.61 120.96 C 119.83 125.06 115.77 128.89 111.86 132.87 C 108.73 135.96 105.82 139.35 102.10 141.77 C 102.76 139.96 103.55 138.19 104.78 136.69 C 109.18 131.18 113.80 125.86 118.09 120.26 C 112.85 113.54 106.10 107.85 102.11 100.26 Z" />
</svg>
